<svg width="18" height="18" viewBox="0 0 18 18" fill="none" xmlns="http://www.w3.org/2000/svg">
<g clip-path="url(#clip0_49_0)">
<path d="M13.0325 0H4.96721C2.22829 0 0 2.2284 0 4.96732V13.0326C0 15.7716 2.22829 17.9999 4.96721 17.9999H13.0325C15.7716 17.9999 17.9999 15.7715 17.9999 13.0326V4.96732C18 2.2284 15.7716 0 13.0325 0ZM16.403 13.0326C16.403 14.891 14.891 16.4029 13.0326 16.4029H4.96721C3.1089 16.403 1.59704 14.891 1.59704 13.0326V4.96732C1.59704 3.10901 3.1089 1.59704 4.96721 1.59704H13.0325C14.8909 1.59704 16.4029 3.10901 16.4029 4.96732V13.0326H16.403Z" fill="white"/>
<path d="M8.99993 4.36182C6.44244 4.36182 4.36182 6.44244 4.36182 8.99993C4.36182 11.5573 6.44244 13.6378 8.99993 13.6378C11.5574 13.6378 13.6381 11.5573 13.6381 8.99993C13.6381 6.44244 11.5574 4.36182 8.99993 4.36182ZM8.99993 12.0407C7.32315 12.0407 5.95885 10.6766 5.95885 8.99983C5.95885 7.32294 7.32304 5.95875 8.99993 5.95875C10.6768 5.95875 12.041 7.32294 12.041 8.99983C12.041 10.6766 10.6767 12.0407 8.99993 12.0407Z" fill="white"/>
<path d="M13.8326 3.00781C13.5249 3.00781 13.2226 3.13238 13.0053 3.35064C12.787 3.56784 12.6614 3.87021 12.6614 4.17897C12.6614 4.48678 12.7871 4.78904 13.0053 5.0073C13.2225 5.2245 13.5249 5.35013 13.8326 5.35013C14.1414 5.35013 14.4427 5.2245 14.6609 5.0073C14.8792 4.78904 15.0037 4.48667 15.0037 4.17897C15.0037 3.87021 14.8792 3.56784 14.6609 3.35064C14.4437 3.13238 14.1414 3.00781 13.8326 3.00781Z" fill="white"/>
</g>
<defs>
<clipPath id="clip0_49_0">
<rect width="18" height="18" fill="white"/>
</clipPath>
</defs>
</svg>
