<svg width="18" height="18" viewBox="0 0 18 18" fill="none" xmlns="http://www.w3.org/2000/svg">
<g clip-path="url(#clip0_49_27)">
<path d="M14.2257 11.1502C13.8572 10.7665 13.4127 10.5614 12.9416 10.5614C12.4743 10.5614 12.026 10.7627 11.6423 11.1464L10.4418 12.3431C10.3431 12.2899 10.2443 12.2405 10.1493 12.1911C10.0126 12.1228 9.88339 12.0582 9.77322 11.9898C8.64871 11.2756 7.62677 10.3448 6.64662 9.14053C6.17175 8.54029 5.85263 8.03502 5.62089 7.52215C5.93241 7.23722 6.22113 6.9409 6.50226 6.65597C6.60863 6.5496 6.71501 6.43943 6.82138 6.33305C7.61917 5.53526 7.61917 4.50193 6.82138 3.70413L5.78425 2.667C5.66648 2.54923 5.54491 2.42766 5.43094 2.30609C5.20299 2.07055 4.96366 1.82741 4.71672 1.59947C4.34821 1.23477 3.90753 1.04102 3.44405 1.04102C2.98057 1.04102 2.53228 1.23477 2.15238 1.59947C2.14858 1.60327 2.14858 1.60327 2.14478 1.60707L0.853113 2.91014C0.366838 3.39641 0.0895088 3.98906 0.0287245 4.67668C-0.0624521 5.786 0.264264 6.81933 0.515 7.49556C1.13044 9.15573 2.04981 10.6943 3.42125 12.3431C5.08523 14.33 7.08731 15.899 9.37432 17.0045C10.2481 17.4186 11.4144 17.9087 12.7175 17.9923C12.7972 17.9961 12.8808 17.9999 12.9568 17.9999C13.8344 17.9999 14.5714 17.6845 15.1488 17.0577C15.1526 17.0501 15.1602 17.0463 15.164 17.0387C15.3616 16.7994 15.5895 16.5828 15.8289 16.3511C15.9922 16.1953 16.1594 16.032 16.3227 15.861C16.6988 15.4697 16.8964 15.0138 16.8964 14.5465C16.8964 14.0755 16.695 13.6234 16.3113 13.2435L14.2257 11.1502ZM15.5857 15.1506C15.5819 15.1506 15.5819 15.1544 15.5857 15.1506C15.4376 15.3101 15.2856 15.4545 15.1222 15.6141C14.8753 15.8496 14.6246 16.0965 14.389 16.3739C14.0053 16.7842 13.5532 16.9779 12.9606 16.9779C12.9036 16.9779 12.8428 16.9779 12.7858 16.9741C11.6575 16.9019 10.609 16.4613 9.82261 16.0851C7.67236 15.0442 5.78425 13.5664 4.21525 11.6935C2.91978 10.1321 2.0536 8.68845 1.47995 7.13845C1.12664 6.19249 0.997476 5.45548 1.05446 4.76026C1.09245 4.31577 1.26341 3.94727 1.57873 3.63195L2.87419 2.33648C3.06035 2.16173 3.25789 2.06675 3.45165 2.06675C3.69098 2.06675 3.88473 2.21111 4.0063 2.33268C4.0101 2.33648 4.0139 2.34028 4.0177 2.34408C4.24944 2.56062 4.46978 2.78477 4.70152 3.02411C4.81929 3.14567 4.94086 3.26724 5.06243 3.39261L6.09956 4.42974C6.50226 4.83244 6.50226 5.20475 6.09956 5.60744C5.98939 5.71761 5.88302 5.82778 5.77285 5.93416C5.45373 6.26087 5.14981 6.5648 4.81929 6.86112C4.8117 6.86872 4.8041 6.87252 4.8003 6.88011C4.47358 7.20683 4.53437 7.52595 4.60275 7.74249C4.60655 7.75389 4.61035 7.76529 4.61415 7.77668C4.88388 8.43012 5.26378 9.04556 5.84123 9.77877L5.84503 9.78257C6.89356 11.0742 7.99908 12.081 9.21856 12.8522C9.37432 12.951 9.53388 13.0307 9.68584 13.1067C9.82261 13.1751 9.95177 13.2397 10.0619 13.3081C10.0771 13.3157 10.0923 13.3271 10.1075 13.3347C10.2367 13.3992 10.3583 13.4296 10.4836 13.4296C10.799 13.4296 10.9965 13.2321 11.0611 13.1675L12.3604 11.8682C12.4895 11.7391 12.6947 11.5833 12.934 11.5833C13.1695 11.5833 13.3633 11.7315 13.4811 11.8606C13.4849 11.8644 13.4849 11.8644 13.4887 11.8682L15.5819 13.9615C15.9732 14.349 15.9732 14.7479 15.5857 15.1506Z" fill="white"/>
<path d="M9.72764 4.28157C10.723 4.44872 11.6271 4.9198 12.349 5.64162C13.0708 6.36343 13.538 7.2676 13.709 8.26294C13.7508 8.51368 13.9673 8.68843 14.2143 8.68843C14.2447 8.68843 14.2713 8.68463 14.3017 8.68083C14.5828 8.63525 14.7689 8.36932 14.7233 8.08819C14.5182 6.8839 13.9483 5.78598 13.0784 4.916C12.2084 4.04603 11.1105 3.47617 9.90619 3.27103C9.62506 3.22544 9.36293 3.41159 9.31354 3.68892C9.26416 3.96625 9.44651 4.23598 9.72764 4.28157Z" fill="white"/>
<path d="M17.9791 7.94018C17.641 5.95709 16.7064 4.15255 15.2704 2.71652C13.8344 1.28049 12.0299 0.345932 10.0468 0.00781895C9.76943 -0.0415683 9.5073 0.148383 9.45791 0.425711C9.41232 0.706839 9.59848 0.968972 9.8796 1.01836C11.6499 1.31848 13.2645 2.15807 14.5486 3.43834C15.8327 4.72241 16.6685 6.33699 16.9686 8.10734C17.0104 8.35807 17.2269 8.53283 17.4739 8.53283C17.5042 8.53283 17.5308 8.52903 17.5612 8.52523C17.8386 8.48344 18.0285 8.21751 17.9791 7.94018Z" fill="white"/>
</g>
<defs>
<clipPath id="clip0_49_27">
<rect width="18" height="18" fill="white"/>
</clipPath>
</defs>
</svg>
