<svg width="18" height="18" viewBox="0 0 18 18" fill="none" xmlns="http://www.w3.org/2000/svg">
<g clip-path="url(#clip0_49_20)">
<path d="M17.2436 6.35298C17.2437 4.66246 16.5811 3.06889 15.378 1.86575C14.1748 0.662613 12.5813 0 10.8906 0H7.12642C7.12628 0 7.12628 0 7.12628 0C5.4359 0 3.84219 0.662613 2.63919 1.86562C1.43605 3.06889 0.773438 4.66246 0.773438 6.35298V9.31187C0.773438 10.6212 1.17279 11.8805 1.92838 12.954C2.59497 13.901 3.49146 14.6408 4.53667 15.1098V16.8094C4.53667 17.6881 5.02872 18 5.45004 18C5.75107 18 6.05209 17.8514 6.34515 17.5585L8.23865 15.665L10.8907 15.6649C12.5813 15.6649 14.1748 15.0022 15.378 13.7992C16.5811 12.5961 17.2437 11.0024 17.2437 9.31187L17.2436 6.35298ZM10.8907 14.6102L8.02029 14.6103C7.88036 14.6103 7.74632 14.6658 7.64745 14.7647L5.59946 16.8127C5.59685 16.8154 5.5941 16.818 5.59135 16.8206C5.59135 16.8169 5.59135 16.8131 5.59135 16.8094V14.7578C5.59135 14.539 5.45636 14.3431 5.25201 14.2651C3.20416 13.4837 1.82826 11.4931 1.82826 9.31187V6.35298C1.82826 4.94412 2.38115 3.61533 3.38503 2.61131C4.3889 1.60757 5.71756 1.05469 7.12642 1.05469H10.8906C12.2995 1.05469 13.6283 1.60757 14.6321 2.61145C15.6362 3.61546 16.189 4.94426 16.1889 6.35298L16.189 9.31187C16.1889 12.2334 13.8121 14.6102 10.8907 14.6102Z" fill="white"/>
<path d="M10.4109 8.62508C10.2051 8.41908 9.87122 8.41908 9.66522 8.62508L9.23923 9.05093L7.58853 7.40038L8.01453 6.97452C8.11341 6.87564 8.16902 6.74147 8.16902 6.60153C8.16902 6.46173 8.11341 6.32756 8.01453 6.22868L6.01749 4.23164C5.91861 4.13277 5.78458 4.07715 5.64464 4.07715C5.50484 4.07715 5.37067 4.13277 5.27179 4.23164L3.87378 5.62965C3.11778 6.38565 3.11778 7.61598 3.87392 8.37239L8.26721 12.766C8.63251 13.1311 9.11962 13.3322 9.63858 13.3322C10.1577 13.3322 10.6448 13.1311 11.0101 12.766L12.4081 11.3681C12.507 11.2691 12.5626 11.135 12.5626 10.9951C12.5626 10.8553 12.507 10.7211 12.4081 10.6223L10.4109 8.62508ZM10.2643 12.02C10.0982 12.186 9.87602 12.2775 9.63858 12.2775C9.40114 12.2775 9.17894 12.186 9.01291 12.02L4.61975 7.62656C4.27478 7.28159 4.27464 6.72018 4.61962 6.37535L5.64464 5.35019L6.89585 6.60153L6.46985 7.02739C6.37097 7.12627 6.31536 7.26044 6.31536 7.40024C6.31536 7.54018 6.37097 7.67421 6.46985 7.77322L8.86624 10.1696C9.07224 10.3755 9.40608 10.3756 9.61208 10.1696L10.0381 9.74376L11.2893 10.995L10.2643 12.02Z" fill="white"/>
<path d="M9.13651 2.33301C8.84523 2.33301 8.60916 2.56908 8.60916 2.86035C8.60916 3.15149 8.84523 3.3877 9.13651 3.3877C10.3434 3.3877 11.4781 3.85764 12.3315 4.71114C13.185 5.5645 13.6549 6.69911 13.6549 7.9061C13.6549 8.19724 13.891 8.43344 14.1823 8.43344C14.4734 8.43344 14.7096 8.19737 14.7096 7.9061C14.7096 6.41745 14.1299 5.01793 13.0773 3.9653C12.0247 2.91267 10.6252 2.33301 9.13651 2.33301Z" fill="white"/>
<path d="M11.3956 7.9059C11.3956 8.19704 11.6318 8.43324 11.9229 8.43324C12.2142 8.43324 12.4503 8.19704 12.4503 7.9059C12.4503 6.07874 10.9637 4.59229 9.13651 4.59229C8.84523 4.59229 8.60916 4.82835 8.60916 5.11963C8.60916 5.4109 8.84523 5.64697 9.13651 5.64697C10.3822 5.64697 11.3956 6.66032 11.3956 7.9059Z" fill="white"/>
</g>
<defs>
<clipPath id="clip0_49_20">
<rect width="18" height="18" fill="white"/>
</clipPath>
</defs>
</svg>
