<svg height="29" viewBox="0 0 251 29" width="251" xmlns="http://www.w3.org/2000/svg"><g fill="none" fill-rule="evenodd" transform="translate(0 .185185)"><path d="m50.4001855 8.29528356v-3.0234375h-12.6210937v3.0234375h4.734375v14.51953124h3.1640625v-14.51953124zm9.8902904 3.52734374c-.7382812-.8554687-1.7695312-1.2773437-3.0820312-1.2773437-.6445313 0-1.2421875.1171875-1.7929688.3632812-.5625.2460938-1.0195312.5976563-1.3710937 1.0546875v-6.85546874h-3.0703125v17.70703124h3.0703125v-6.796875c0-.796875.1992187-1.4414062.5859375-1.921875.3867187-.4804687.9492187-.7148437 1.6875-.7148437.609375 0 1.0898437.2109375 1.453125.6210937.3632812.4101563.5390625 1.0429688.5390625 1.8984375v6.9140625h3.0820312v-7.5820312c0-1.4179688-.3632812-2.5546875-1.1015625-3.4101563zm9.8316967 8.2851563c-.5625.3398437-1.1953125.5039062-1.8984375.5039062-.8789063 0-1.59375-.2460937-2.1210938-.75-.5390625-.4921875-.8203125-1.1601562-.8320312-2.015625h8.3554687c.1054688-.5039062.1640625-1.03125.1640625-1.5585937 0-1.1367188-.234375-2.1328125-.703125-3-.4804687-.8671875-1.1367187-1.546875-1.9921875-2.0273438-.8554687-.4804687-1.8398437-.7148437-2.9414062-.7148437-1.171875 0-2.203125.2695312-3.0820313.796875-.890625.5273437-1.5820312 1.2773437-2.0625 2.2265625-.4921875.9609375-.7382812 2.0742187-.7382812 3.3398437s.2460937 2.3789063.75 3.328125c.4921875.9492188 1.1835937 1.6875 2.0859375 2.203125.890625.5273438 1.921875.7851563 3.09375.7851563 1.3242187 0 2.5078125-.3164063 3.5273437-.9609375 1.0195313-.6445313 1.6992188-1.4765625 2.015625-2.5195313l-2.4492187-.9609375c-.2226563.5507813-.6210938.984375-1.171875 1.3242188zm-3.9492188-6.3046875c.515625-.4335938 1.1601563-.65625 1.9335938-.65625.75 0 1.359375.2109375 1.828125.6445312.4570312.4335938.703125 1.0078125.7382812 1.7460938h-5.3789062c.0585937-.7148438.3515625-1.3007813.8789062-1.734375zm23.6360496 5.9648437h-7.265625v-14.49609374h-3.1757813v17.54296874h10.4414063zm1.1246654-11.60156249c.3632812.375.8320312.5625 1.40625.5625.5742187 0 1.0429687-.1875 1.40625-.5625.3632812-.375.5390625-.83203125.5390625-1.359375 0-.55078125-.1757813-1.0078125-.5390625-1.3828125-.3632813-.375-.8320313-.5625-1.40625-.5625-.5742188 0-1.0429688.1875-1.40625.5625-.375.375-.5625.83203125-.5625 1.3828125 0 .52734375.1875.984375.5625 1.359375zm2.9179687 2.78906249h-3v11.859375h3zm6.9488845-2.75390624c.316406-.38671875.902343-.57421875 1.757812-.57421875.339844 0 .773438.0234375 1.300781.0703125v-2.51953125c-.574218-.19921875-1.253906-.29296875-2.015625-.29296875-1.441406 0-2.5781246.41015625-3.3984371 1.2421875-.8320312.83203125-1.2421875 2.015625-1.2421875 3.5390625v1.28906249h-2.7070312v2.671875h2.7070312v9.1875h3.1171876v-9.1875h3.539062v-2.671875h-3.539062v-.96093749c0-.80859375.164062-1.40625.480469-1.79296875zm10.898103 11.90625004c-.5625.3398437-1.195313.5039062-1.898438.5039062-.878906 0-1.59375-.2460937-2.121094-.75-.539062-.4921875-.820312-1.1601562-.832031-2.015625h8.355469c.105469-.5039062.164062-1.03125.164062-1.5585937 0-1.1367188-.234375-2.1328125-.703125-3-.480468-.8671875-1.136718-1.546875-1.992187-2.0273438-.855469-.4804687-1.839844-.7148437-2.941406-.7148437-1.171875 0-2.203125.2695312-3.082032.796875-.890625.5273437-1.582031 1.2773437-2.0625 2.2265625-.492187.9609375-.738281 2.0742187-.738281 3.3398437s.246094 2.3789063.75 3.328125c.492188.9492188 1.183594 1.6875 2.085938 2.203125.890625.5273438 1.921875.7851563 3.09375.7851563 1.324218 0 2.507812-.3164063 3.527343-.9609375 1.019532-.6445313 1.699219-1.4765625 2.015625-2.5195313l-2.449218-.9609375c-.222657.5507813-.621094.984375-1.171875 1.3242188zm-3.949219-6.3046875c.515625-.4335938 1.160156-.65625 1.933594-.65625.75 0 1.359375.2109375 1.828125.6445312.457031.4335938.703125 1.0078125.738281 1.7460938h-5.378906c.058593-.7148438.351562-1.3007813.878906-1.734375zm15.456362-8.53125004h-3.679688l6.222657 10.58203124v6.9609375h3.09375v-6.9609375l6.269531-10.58203124h-3.65625l-4.148438 7.21875004zm9.550447 8.32031254c-.550782.9609375-.820313 2.0625-.820313 3.2929687 0 1.2304688.269531 2.3320313.820313 3.2929688.539062.9609375 1.277343 1.7109375 2.226562 2.2382812.9375.5390625 1.992188.8085938 3.164063.8085938 1.183593 0 2.25-.2695313 3.1875-.8085938.925781-.5273437 1.664062-1.2773437 2.203125-2.2382812.539062-.9609375.808593-2.0625.808593-3.2929688 0-1.2304687-.269531-2.3320312-.796875-3.2929687-.527343-.9492188-1.265625-1.6992188-2.191406-2.2382813-.9375-.5390625-2.003906-.8085937-3.1875-.8085937s-2.238281.2695312-3.1875.8085937-1.6875 1.2890625-2.226562 2.2382813zm3.210937 5.8359375c-.550781-.6445313-.820312-1.4765625-.820312-2.5195313 0-1.0664062.269531-1.9335937.820312-2.578125.539063-.6445312 1.253906-.9726562 2.15625-.9726562s1.628906.328125 2.179688.9726562c.550781.6445313.820312 1.5.820312 2.5546875s-.269531 1.8984375-.820312 2.5429688c-.550782.6445312-1.277344.9609375-2.179688.9609375-.890625 0-1.605469-.3164063-2.15625-.9609375zm19.45279-8.4726563h-3.070312v6.84375c0 .7851563-.1875 1.3945313-.5625 1.828125-.375.4453125-.914063.6679688-1.617188.6679688-.597656 0-1.066406-.1875-1.417968-.5742188-.351563-.375-.527344-.9492187-.527344-1.734375v-7.03125h-3.070313v7.875c0 1.3242188.351563 2.390625 1.066407 3.1875.714843.8085938 1.6875 1.2070313 2.917968 1.2070313.761719 0 1.453125-.1640625 2.074219-.4921875.609375-.328125 1.054688-.7617188 1.324219-1.2890625v1.3710937h2.882812zm9.257144 11.0742188c1.277343.7617187 2.730468 1.1484375 4.382812 1.1484375 1.253906 0 2.425781-.2226563 3.492188-.6914063 1.066406-.4570312 1.957031-1.1015625 2.683593-1.9335937.726563-.8320313 1.21875-1.78125 1.476563-2.8710938l-3.164063-1.1601562c-.246093 1.0429687-.773437 1.875-1.582031 2.4960937-.820312.6210938-1.78125.9375-2.882812.9375-.972657 0-1.839844-.2460937-2.589844-.75-.761719-.4921875-1.347656-1.1835937-1.757813-2.0742187-.410156-.8789063-.621093-1.9101563-.621093-3.0820313 0-1.1835937.210937-2.2148437.621093-3.1171875.410157-.890625.996094-1.58203124 1.757813-2.07421874.75-.48046875 1.617187-.7265625 2.589844-.7265625 1.101562 0 2.0625.3046875 2.882812.92578125.808594.62109375 1.335938 1.45312499 1.582031 2.49609379l3.164063-1.171875c-.269531-1.08984379-.773438-2.05078129-1.5-2.88281254-.726563-.83203125-1.617188-1.46484375-2.683594-1.921875-1.066406-.4453125-2.214844-.66796875-3.445312-.66796875-1.628907 0-3.09375.375-4.371094 1.13671875s-2.273438 1.83984375-2.988281 3.22265625c-.714844 1.38281249-1.066407 2.97656249-1.066407 4.78124999 0 1.7929688.351563 3.3867188 1.054688 4.7695313s1.6875 2.4492187 2.964844 3.2109375zm21.632478-10.3007813c-.855469-.7851562-2.050782-1.1835937-3.585938-1.1835937-1.40625 0-2.578125.3164062-3.515625.9609375-.949219.6445312-1.511719 1.5585937-1.710937 2.7421875l2.613281.6679687c.082031-.5507812.339844-.9960937.796875-1.3359375.445312-.3398437 1.007812-.5039062 1.699219-.5039062.609375 0 1.089843.140625 1.429687.4101562.339844.2695313.515625.6445313.515625 1.125 0 .75-.445312 1.125-1.347656 1.125h-1.828125c-1.300781 0-2.332031.3398438-3.117188 1.03125-.785156.6914063-1.171875 1.6054688-1.171875 2.7539063 0 1.125.363282 2.0273437 1.101563 2.6953125.738281.6679687 1.699219 1.0078125 2.882812 1.0078125.808594 0 1.535157-.1640625 2.179688-.4804688.644531-.3164062 1.125-.7617187 1.441406-1.3242187l.164063 1.3945312h2.71875v-7.6523437c0-1.4882813-.421875-2.6367188-1.265625-3.4335938zm-1.78125 6.1171875v.4804688c0 .7148437-.210938 1.3007812-.644532 1.734375-.433593.4453125-1.042968.6679687-1.804687.6679687-.597656 0-1.066406-.1289062-1.40625-.3867187s-.515625-.6210938-.515625-1.078125c0-.4453125.152344-.796875.46875-1.0429688.316406-.2460937.785156-.375 1.40625-.375zm13.605134-6.0234375c-.738281-.8554687-1.769531-1.2773437-3.082031-1.2773437-.714844 0-1.371094.140625-1.957032.4335937-.597656.2929688-1.054687.7148438-1.394531 1.2773438l-.128906-1.3007813h-2.753906v11.859375h3.070312v-6.8671875c0-.7851562.199219-1.40625.585938-1.875.386718-.4570312.949218-.6914062 1.6875-.6914062.609375 0 1.089843.1992187 1.453125.609375.363281.4101562.539062 1.03125.539062 1.8398437v6.984375h3.082031v-7.5820312c0-1.4179688-.363281-2.5546875-1.101562-3.4101563zm15.339174-1.5117187 3.09375-.79687504c-.199218-1.40625-.855468-2.51953125-1.945312-3.3515625-1.101563-.8203125-2.460938-1.23046875-4.078125-1.23046875-1.148438 0-2.179688.2109375-3.082031.64453125-.902344.43359375-1.617188 1.0546875-2.121094 1.8515625-.515625.80859375-.773438 1.74609375-.773438 2.81250004 0 1.265625.386719 2.3085937 1.148438 3.140625.761719.8320312 1.96875 1.4648437 3.632812 1.875l2.320313.5742187c1.300781.3398438 1.945312 1.0195313 1.945312 2.0390625 0 .703125-.257812 1.2421875-.773437 1.6289063-.515625.3867187-1.21875.5859375-2.097656.5859375-.996094 0-1.792969-.2578125-2.402344-.7617188-.609375-.5039062-.925781-1.171875-.960938-1.9804687l-3.140625.4804687c.09375 1.0429688.421875 1.9570313.984375 2.7539063.550782.8085937 1.300782 1.4296875 2.25 1.8632812.949219.4453125 2.039063.6679688 3.292969.6679688 1.242188 0 2.332031-.2226563 3.28125-.6796875.949219-.4453125 1.675781-1.078125 2.203125-1.8984375.515625-.8085938.773438-1.7578125.773438-2.8242188 0-1.21875-.351563-2.2617187-1.054688-3.1289062-.703125-.8554688-1.78125-1.4648438-3.234375-1.8164063l-2.378906-.5976562c-.785156-.2109375-1.382813-.46875-1.792969-.7851563-.410156-.3164062-.609375-.7617187-.609375-1.3359375 0-.63281249.234375-1.14843749.714844-1.54687499.46875-.38671875 1.089844-.5859375 1.851562-.5859375.832032 0 1.523438.2109375 2.050782.64453125.527343.43359375.820312 1.01953125.902343 1.75781254zm13.124666 1.4179687c-.855469-.7851562-2.050781-1.1835937-3.585938-1.1835937-1.40625 0-2.578125.3164062-3.515625.9609375-.949218.6445312-1.511718 1.5585937-1.710937 2.7421875l2.613281.6679687c.082031-.5507812.339844-.9960937.796875-1.3359375.445313-.3398437 1.007813-.5039062 1.699219-.5039062.609375 0 1.089844.140625 1.429687.4101562.339844.2695313.515625.6445313.515625 1.125 0 .75-.445312 1.125-1.347656 1.125h-1.828125c-1.300781 0-2.332031.3398438-3.117187 1.03125-.785157.6914063-1.171875 1.6054688-1.171875 2.7539063 0 1.125.363281 2.0273437 1.101562 2.6953125.738281.6679687 1.699219 1.0078125 2.882813 1.0078125.808593 0 1.535156-.1640625 2.179687-.4804688.644531-.3164062 1.125-.7617187 1.441406-1.3242187l.164063 1.3945312h2.71875v-7.6523437c0-1.4882813-.421875-2.6367188-1.265625-3.4335938zm-1.78125 6.1171875v.4804688c0 .7148437-.210938 1.3007812-.644531 1.734375-.433594.4453125-1.042969.6679687-1.804688.6679687-.597656 0-1.066406-.1289062-1.40625-.3867187s-.515625-.6210938-.515625-1.078125c0-.4453125.152344-.796875.46875-1.0429688.316406-.2460937.785156-.375 1.40625-.375zm6.011384-6.890625h-3.410156l4.6875 11.859375h2.976562l4.746094-11.859375h-3.328125l-2.214844 6.09375-.164062.5039063c-.210938.5273437-.375 1.0898437-.503907 1.6640625-.058593-.3164063-.152343-.65625-.269531-1.0078125l-.135295-.3769816c-.047422-.1400784-.078991-.2424381-.09908-.3027059l-.042969-.093316c-.033854-.0850695-.078125-.2152778-.132812-.3871528zm16.218415 9.1523438c-.5625.3398437-1.195312.5039062-1.898437.5039062-.878906 0-1.59375-.2460937-2.121094-.75-.539062-.4921875-.820312-1.1601562-.832031-2.015625h8.355469c.105468-.5039062.164062-1.03125.164062-1.5585937 0-1.1367188-.234375-2.1328125-.703125-3-.480469-.8671875-1.136719-1.546875-1.992187-2.0273438-.855469-.4804687-1.839844-.7148437-2.941407-.7148437-1.171875 0-2.203125.2695312-3.082031.796875-.890625.5273437-1.582031 1.2773437-2.0625 2.2265625-.492187.9609375-.738281 2.0742187-.738281 3.3398437s.246094 2.3789063.75 3.328125c.492187.9492188 1.183594 1.6875 2.085937 2.203125.890625.5273438 1.921875.7851563 3.09375.7851563 1.324219 0 2.507813-.3164063 3.527344-.9609375 1.019531-.6445313 1.699219-1.4765625 2.015625-2.5195313l-2.449219-.9609375c-.222656.5507813-.621093.984375-1.171875 1.3242188zm-3.949218-6.3046875c.515625-.4335938 1.160156-.65625 1.933593-.65625.75 0 1.359375.2109375 1.828125.6445312.457032.4335938.703125 1.0078125.738282 1.7460938h-5.378907c.058594-.7148438.351563-1.3007813.878907-1.734375z" fill="#231f20" fill-rule="nonzero"/><path d="m29.0420161 5.1229148c-.6962187-1.31567912-1.7363644-2.44498885-2.9161399-3.37588492-1.3367787-1.05577623-3.5023279-2.1841351-5.9407022-1.57589895-2.5902299.64722157-3.6213672 2.86558778-5.1994416 4.72706296-.8844295-1.39777039-1.1199342-3.31724829-2.5126934-4.10741645-.9864172-.5587912-2.82991699-.7255094-4.34268069-.61964651-2.51011961.1778116-4.53989975 1.42185895-5.65597318 2.58825239-1.57582233 1.64499509-2.79130963 4.20979283-2.40073219 7.54035318.49899968 4.257653 3.21952922 6.9460631 5.82874096 9.9038847 1.2898064 1.4617953 2.3103267 3.0234313 3.5409352 4.3324544 1.2035834 1.2766937 2.2964924 2.5254953 3.4653292 3.6931566l.0221992.0196512c.064989.0709978.1241869.1305853.1862803.195561.5797534-2.5955423 1.3268051-6.0474964 1.3438567-6.6541477.028312-.994287-1.0221289-.6218652-2.2263558-1.7942808-.6576114-.6396147-2.0040419-2.0487954-2.74079835-2.4808047-1.16433259-.6824036-.53310281-1.2075976.49610414-1.0091839 1.20100951.2320108 1.63276811.9283604 2.18420941.566715.3741694-.2453229.8940813-1.3771683.7695727-2.1711399-.0778581-.483356-.7393303-1.7987182-1.2647116-3.2953784-.4867741-1.3850922-.6753065-2.72454296-.010617-2.79902732 1.0356415-.11410371 1.0497975 1.06528487 1.591587 2.31884082.7110182 1.6361204 1.5629532 3.3033023 1.5629532 3.3033023s-.0485809-2.100459.1364125-3.8066264c.129978-1.20728058.0411812-2.92676003.6022743-2.92676003.010617 0 .0215558 0 .031851.00221868 1.2183829.13121926 1.0082947 1.69158744 1.0481889 2.93468395.0534068 1.6266117.0688498 3.8760395.0688498 3.8760395s.5643104-1.3968196 1.1617587-3.0684389c.4362628-1.2212266.4883827-2.38445045 1.3126491-2.28017234.7518777.09572033.3992641 1.42883194.115822 2.70901214-.3313796 1.4976111-.4481667 2.8839712-.4481667 2.8839712s.8734907-.8228145 1.417854-1.8294628c.4636096-.8564117.6280125-.8862054 1.0121554-.6171109.2712164.1908068.3577612.3454807-.0920141 1.2015755-.4800178.9185348-.8593348 1.7638531-1.0137641 2.2855606-.1232217.419965-.4468798 2.6909457-.660507 3.5800037-.3085368 1.267819-1.2212784 2.0976065-1.2212784 2.0976065l.1286911 6.5324372c1.8296655-1.4747904 3.5560564-3.3983887 5.1885028-5.2690556 1.9519221-2.2319953 4.143853-4.7235765 5.3142984-7.2588974 1.3371004-2.8960155 1.5388236-7.65667564.1155002-10.3530096" fill="#e64c3b"/></g></svg>