<svg width="16" height="16" viewBox="0 0 16 16" fill="none" xmlns="http://www.w3.org/2000/svg">
<path d="M12.8352 0.228034L7.51821 5.54498L2.20123 0.228006C1.95902 -0.0142041 1.10494 -0.210497 0.447169 0.447271C-0.210599 1.10504 -0.014278 1.95916 0.227903 2.20134L5.5449 7.51834L0.227931 12.8353C-0.0142792 13.0775 -0.210601 13.9316 0.447138 14.5893C1.10488 15.2471 1.95902 15.0508 2.2012 14.8086L7.51821 9.49158L12.8352 14.8086C13.0774 15.0507 13.9315 15.2471 14.5893 14.5893C15.2471 13.9315 15.0507 13.0774 14.8085 12.8353L9.49154 7.51825L14.8085 2.20125C15.0507 1.9591 15.2471 1.10498 14.5893 0.447184C13.9315 -0.210612 13.0773 -0.0141464 12.8352 0.228034Z" fill="#2D5E5E"/>
</svg>
