<svg width="18" height="18" viewBox="0 0 18 18" fill="none" xmlns="http://www.w3.org/2000/svg">
<g clip-path="url(#clip0_49_25)">
<path d="M17.866 0.721609C17.7103 0.547235 17.4645 0.500478 17.261 0.589422L0.315832 8.00733C0.128099 8.0896 0.00470168 8.27347 0.000131413 8.47878C-0.00443886 8.68373 0.110521 8.87287 0.294738 8.96358L4.34083 10.9534L5.34911 17.0023C5.3818 17.2319 5.56215 17.4165 5.79699 17.4499C5.96574 17.4741 6.13344 17.4147 6.24945 17.2952L9.44372 14.1009L14.002 17.3571C14.1483 17.4611 14.3367 17.484 14.5027 17.4182C14.6689 17.3525 14.7906 17.2066 14.8257 17.0312L17.9898 1.17582C18.0211 1.01868 17.9806 0.85028 17.866 0.721609ZM4.75849 9.98345L1.77902 8.51815L13.5499 3.36534L4.75849 9.98345ZM6.40871 11.5511L5.91828 14.0032L5.38918 10.8286L11.8568 5.95985L6.55249 11.2821C6.47796 11.3566 6.42839 11.4537 6.40871 11.5511ZM6.72968 15.3233L7.28303 12.5576L8.57361 13.4794L6.72968 15.3233ZM13.9511 16.0243L7.73795 11.5866L16.6138 2.6812L13.9511 16.0243Z" fill="white"/>
</g>
<defs>
<clipPath id="clip0_49_25">
<rect width="18" height="18" fill="white"/>
</clipPath>
</defs>
</svg>
