<svg width="26" height="26" viewBox="0 0 26 26" fill="none" xmlns="http://www.w3.org/2000/svg">
<path d="M8.59519 1.63235C8.56208 1.50513 8.55439 1.37263 8.57254 1.24244C8.59069 1.11224 8.63434 0.986899 8.70098 0.873586C8.76762 0.760273 8.85595 0.661211 8.96091 0.582068C9.06587 0.502925 9.18541 0.445254 9.31269 0.412354C11.4445 -0.137451 13.6809 -0.137451 15.8127 0.412354C16.0488 0.472808 16.2547 0.617419 16.3917 0.819008C16.5287 1.0206 16.5874 1.26528 16.5567 1.50708C16.526 1.74887 16.408 1.97113 16.225 2.13208C16.0419 2.29303 15.8064 2.38158 15.5627 2.3811C15.4783 2.38066 15.3944 2.36975 15.3127 2.3486C13.5089 1.88337 11.6165 1.88337 9.81269 2.3486C9.55627 2.41475 9.28408 2.37649 9.05584 2.24221C8.8276 2.10794 8.66193 1.88861 8.59519 1.63235ZM3.28644 3.8936C1.74474 5.46351 0.626525 7.39888 0.0364352 9.5186C-0.0343445 9.77421 -0.000687569 10.0475 0.130002 10.2782C0.260691 10.509 0.477708 10.6784 0.73331 10.7492C0.988913 10.82 1.26216 10.7864 1.49295 10.6557C1.72374 10.525 1.89316 10.308 1.96394 10.0524C2.46277 8.25807 3.409 6.61981 4.71393 5.2911C4.88462 5.09911 4.97487 4.84879 4.96597 4.59204C4.95707 4.3353 4.8497 4.09183 4.66613 3.91212C4.48255 3.7324 4.23686 3.63023 3.97998 3.62678C3.72311 3.62334 3.47476 3.71888 3.28644 3.8936ZM1.96394 15.9449C1.92881 15.8183 1.86909 15.6999 1.78821 15.5964C1.70732 15.4929 1.60684 15.4064 1.49251 15.3417C1.37818 15.2771 1.25223 15.2356 1.12186 15.2196C0.991488 15.2036 0.859247 15.2135 0.732685 15.2486C0.606124 15.2837 0.487721 15.3434 0.384236 15.4243C0.280752 15.5052 0.194213 15.6057 0.12956 15.72C0.064907 15.8344 0.0234068 15.9603 0.00742847 16.0907C-0.00854991 16.2211 0.00130659 16.3533 0.0364352 16.4799C0.62688 18.5994 1.74504 20.5347 3.28644 22.1049C3.47242 22.294 3.72592 22.4015 3.99116 22.4037C4.25641 22.4059 4.51168 22.3027 4.70081 22.1167C4.88994 21.9307 4.99745 21.6772 4.99967 21.412C5.0019 21.1468 4.89867 20.8915 4.71268 20.7024C3.40936 19.3741 2.4637 17.7374 1.96394 15.9449ZM15.3127 23.6536C13.5089 24.1193 11.6164 24.1193 9.81269 23.6536C9.68481 23.6185 9.55123 23.6092 9.41971 23.6262C9.2882 23.6431 9.16137 23.6861 9.04663 23.7526C8.93188 23.8191 8.8315 23.9077 8.75133 24.0133C8.67115 24.119 8.61279 24.2395 8.57964 24.3679C8.54648 24.4963 8.53919 24.63 8.5582 24.7612C8.5772 24.8925 8.62212 25.0186 8.69034 25.1323C8.75856 25.246 8.84871 25.3451 8.95555 25.4236C9.0624 25.5022 9.1838 25.5587 9.31269 25.5899C11.4445 26.1397 13.6809 26.1397 15.8127 25.5899C16.0659 25.5203 16.2816 25.354 16.4132 25.1268C16.5448 24.8996 16.5818 24.6298 16.5161 24.3755C16.4505 24.1213 16.2875 23.9031 16.0623 23.768C15.8371 23.6329 15.5679 23.5919 15.3127 23.6536ZM24.3939 15.2511C24.2673 15.216 24.135 15.2062 24.0045 15.2222C23.8741 15.2382 23.7481 15.2799 23.6337 15.3446C23.5194 15.4094 23.4189 15.4961 23.3381 15.5997C23.2573 15.7034 23.1977 15.8219 23.1627 15.9486C22.6641 17.7426 21.7178 19.3806 20.4127 20.7086C20.3207 20.8023 20.248 20.9133 20.1989 21.0351C20.1498 21.1569 20.1251 21.2872 20.1263 21.4185C20.1275 21.5498 20.1546 21.6797 20.206 21.8005C20.2574 21.9214 20.3321 22.031 20.4258 22.123C20.5195 22.215 20.6305 22.2876 20.7523 22.3368C20.8741 22.3859 21.0044 22.4106 21.1357 22.4093C21.2671 22.4081 21.3969 22.381 21.5177 22.3297C21.6386 22.2783 21.7482 22.2036 21.8402 22.1099C23.3821 20.5401 24.5003 18.6047 25.0902 16.4849C25.1257 16.3581 25.1359 16.2256 25.1201 16.095C25.1043 15.9643 25.0629 15.838 24.9982 15.7234C24.9335 15.6088 24.8468 15.5081 24.7432 15.427C24.6395 15.346 24.5208 15.2862 24.3939 15.2511ZM23.1614 10.0586C23.1966 10.1852 23.2563 10.3036 23.3372 10.4071C23.4181 10.5105 23.5185 10.5971 23.6329 10.6617C23.7472 10.7264 23.8731 10.7679 24.0035 10.7839C24.1339 10.7998 24.2661 10.79 24.3927 10.7549C24.5192 10.7197 24.6376 10.66 24.7411 10.5791C24.8446 10.4982 24.9312 10.3978 24.9958 10.2834C25.0605 10.1691 25.102 10.0431 25.1179 9.91278C25.1339 9.78241 25.1241 9.65016 25.0889 9.5236C24.4991 7.40377 23.3809 5.46834 21.8389 3.8986C21.7468 3.80495 21.6372 3.73036 21.5163 3.67908C21.3954 3.6278 21.2655 3.60084 21.1342 3.59974C21.0029 3.59864 20.8726 3.62341 20.7508 3.67266C20.6291 3.7219 20.5182 3.79464 20.4246 3.88673C20.3309 3.97882 20.2563 4.08845 20.205 4.20937C20.1538 4.33029 20.1268 4.46012 20.1257 4.59146C20.1246 4.72279 20.1494 4.85306 20.1986 4.97482C20.2479 5.09658 20.3206 5.20745 20.4127 5.3011C21.7164 6.62854 22.6622 8.26498 23.1614 10.0574V10.0586Z" fill="#00ADB5"/>
</svg>
