<svg width="21" height="18" viewBox="0 0 21 18" fill="none" xmlns="http://www.w3.org/2000/svg">
<path d="M20.0318 3.53105L17.2286 6.33417C16.6624 12.8985 11.1265 18.0004 4.50115 18.0004C3.1399 18.0004 2.01771 17.7848 1.16552 17.3592C0.478333 17.0151 0.197083 16.6467 0.12677 16.5417C0.0640744 16.4476 0.023437 16.3407 0.00789473 16.2287C-0.00764753 16.1168 0.00230729 16.0028 0.0370149 15.8952C0.0717226 15.7877 0.130286 15.6894 0.208329 15.6077C0.286372 15.5259 0.381877 15.4629 0.487708 15.4232C0.512083 15.4139 2.76021 14.5504 4.18802 12.907C3.39619 12.256 2.70497 11.4914 2.13677 10.6382C0.97427 8.9123 -0.32698 5.91417 0.0742701 1.43386C0.0869885 1.2915 0.140122 1.15573 0.227413 1.04256C0.314704 0.929377 0.432518 0.843498 0.566981 0.795032C0.701443 0.746567 0.846955 0.737532 0.98638 0.768993C1.12581 0.800454 1.25334 0.8711 1.35396 0.972612C1.38677 1.00542 4.47396 4.07574 8.24833 5.07136V4.50042C8.2469 3.90173 8.36527 3.3088 8.59647 2.75655C8.82767 2.2043 9.16704 1.7039 9.59458 1.2848C10.0098 0.870168 10.5039 0.542901 11.0476 0.322309C11.5914 0.101718 12.1738 -0.00772972 12.7605 0.000424293C13.5476 0.00818766 14.3193 0.219474 15.0006 0.613741C15.6818 1.00801 16.2495 1.57184 16.6483 2.25042H19.5011C19.6496 2.25031 19.7947 2.29423 19.9181 2.37663C20.0416 2.45904 20.1378 2.57621 20.1946 2.71333C20.2514 2.85045 20.2663 3.00134 20.2373 3.1469C20.2083 3.29247 20.1368 3.42616 20.0318 3.53105Z" fill="#FAFAFA"/>
</svg>
