<svg width="25" height="25" viewBox="0 0 25 25" fill="none" xmlns="http://www.w3.org/2000/svg">
<path d="M12.5 0C9.18591 0.0036395 6.0086 1.32177 3.66518 3.66518C1.32177 6.0086 0.0036395 9.18591 0 12.5V23.0413C0.000661516 23.5605 0.207242 24.0584 0.574435 24.4256C0.941629 24.7928 1.43946 24.9993 1.95875 25H12.5C15.8152 25 18.9946 23.683 21.3388 21.3388C23.683 18.9946 25 15.8152 25 12.5C25 9.18479 23.683 6.00537 21.3388 3.66117C18.9946 1.31696 15.8152 0 12.5 0ZM12.5 23H2V12.5C2 10.4233 2.61581 8.39323 3.76957 6.66651C4.92332 4.9398 6.5632 3.59399 8.48182 2.79926C10.4004 2.00454 12.5116 1.79661 14.5484 2.20175C16.5852 2.6069 18.4562 3.60693 19.9246 5.07538C21.3931 6.54383 22.3931 8.41475 22.7982 10.4516C23.2034 12.4884 22.9955 14.5996 22.2007 16.5182C21.406 18.4368 20.0602 20.0767 18.3335 21.2304C16.6068 22.3842 14.5767 23 12.5 23Z" fill="#00ADB5"/>
</svg>
