<svg width="20" height="20" viewBox="0 0 20 20" fill="none" xmlns="http://www.w3.org/2000/svg">
<path d="M18 0H1.5C1.10218 0 0.720644 0.158035 0.43934 0.43934C0.158035 0.720644 0 1.10218 0 1.5V18C0 18.3978 0.158035 18.7794 0.43934 19.0607C0.720644 19.342 1.10218 19.5 1.5 19.5H18C18.3978 19.5 18.7794 19.342 19.0607 19.0607C19.342 18.7794 19.5 18.3978 19.5 18V1.5C19.5 1.10218 19.342 0.720644 19.0607 0.43934C18.7794 0.158035 18.3978 0 18 0ZM6.75 14.25C6.75 14.4489 6.67098 14.6397 6.53033 14.7803C6.38968 14.921 6.19891 15 6 15C5.80109 15 5.61032 14.921 5.46967 14.7803C5.32902 14.6397 5.25 14.4489 5.25 14.25V8.25C5.25 8.05109 5.32902 7.86032 5.46967 7.71967C5.61032 7.57902 5.80109 7.5 6 7.5C6.19891 7.5 6.38968 7.57902 6.53033 7.71967C6.67098 7.86032 6.75 8.05109 6.75 8.25V14.25ZM6 6.75C5.7775 6.75 5.55999 6.68402 5.37498 6.5604C5.18998 6.43679 5.04578 6.26109 4.96064 6.05552C4.87549 5.84995 4.85321 5.62375 4.89662 5.40552C4.94002 5.18729 5.04717 4.98684 5.2045 4.8295C5.36184 4.67217 5.56229 4.56502 5.78052 4.52162C5.99875 4.47821 6.22495 4.50049 6.43052 4.58564C6.63609 4.67078 6.81179 4.81498 6.9354 4.99998C7.05902 5.18499 7.125 5.4025 7.125 5.625C7.125 5.92337 7.00647 6.20952 6.7955 6.4205C6.58452 6.63147 6.29837 6.75 6 6.75ZM15 14.25C15 14.4489 14.921 14.6397 14.7803 14.7803C14.6397 14.921 14.4489 15 14.25 15C14.0511 15 13.8603 14.921 13.7197 14.7803C13.579 14.6397 13.5 14.4489 13.5 14.25V10.875C13.5 10.3777 13.3025 9.90081 12.9508 9.54918C12.5992 9.19754 12.1223 9 11.625 9C11.1277 9 10.6508 9.19754 10.2992 9.54918C9.94754 9.90081 9.75 10.3777 9.75 10.875V14.25C9.75 14.4489 9.67098 14.6397 9.53033 14.7803C9.38968 14.921 9.19891 15 9 15C8.80109 15 8.61032 14.921 8.46967 14.7803C8.32902 14.6397 8.25 14.4489 8.25 14.25V8.25C8.25093 8.06629 8.31926 7.88931 8.44201 7.75264C8.56477 7.61596 8.73342 7.5291 8.91598 7.50852C9.09853 7.48794 9.28229 7.53508 9.43239 7.641C9.5825 7.74691 9.68851 7.90423 9.73031 8.08313C10.2377 7.73894 10.8292 7.53947 11.4414 7.50611C12.0536 7.47276 12.6633 7.60679 13.205 7.89381C13.7468 8.18083 14.2001 8.61 14.5164 9.13523C14.8326 9.66046 14.9998 10.2619 15 10.875V14.25Z" fill="#FAFAFA"/>
</svg>
